<svg width="24" height="24" viewBox="0 0 24 24" fill="none" xmlns="http://www.w3.org/2000/svg">
<path d="M14.2219 3.55313C14.2468 3.45779 14.2905 3.36839 14.3505 3.29016C14.4104 3.21194 14.4854 3.14646 14.5709 3.09757C14.6565 3.04867 14.751 3.01735 14.8488 3.00542C14.9466 2.9935 15.0458 3.00122 15.1406 3.02813C16.5387 3.40311 17.8136 4.13934 18.8371 5.16289C19.8607 6.18644 20.5969 7.46128 20.9719 8.85938C20.9988 8.95419 21.0065 9.05341 20.9946 9.15123C20.9827 9.24905 20.9513 9.34352 20.9024 9.42908C20.8535 9.51465 20.7881 9.58959 20.7098 9.64953C20.6316 9.70946 20.5422 9.75319 20.4469 9.77813C20.3829 9.79667 20.3166 9.80613 20.25 9.80626C20.0845 9.80531 19.9239 9.74962 19.7933 9.64787C19.6627 9.54612 19.5695 9.40404 19.5281 9.24376C19.2162 8.10215 18.6121 7.06159 17.7752 6.22477C16.9384 5.38794 15.8979 4.78377 14.7562 4.47188C14.6601 4.44796 14.5697 4.40498 14.4904 4.34549C14.4111 4.28599 14.3446 4.21119 14.2948 4.12551C14.2449 4.03984 14.2128 3.94503 14.2003 3.84671C14.1878 3.7484 14.1951 3.64856 14.2219 3.55313ZM13.9781 7.36876C14.6127 7.54246 15.1911 7.87848 15.6563 8.3437C16.1215 8.80892 16.4575 9.3873 16.6312 10.0219C16.6712 10.183 16.764 10.326 16.8949 10.428C17.0258 10.53 17.1872 10.5851 17.3531 10.5844C17.4167 10.585 17.48 10.5755 17.5406 10.5563C17.6368 10.5323 17.7272 10.4894 17.8065 10.4299C17.8857 10.3704 17.9523 10.2956 18.0021 10.2099C18.0519 10.1242 18.0841 10.0294 18.0966 9.93109C18.1091 9.83277 18.1018 9.73294 18.075 9.63751C17.8382 8.74642 17.3702 7.93374 16.7182 7.28179C16.0663 6.62983 15.2536 6.16177 14.3625 5.92501C14.2647 5.88937 14.1605 5.87449 14.0566 5.88131C13.9527 5.88814 13.8514 5.91653 13.759 5.96467C13.6667 6.01281 13.5854 6.07964 13.5203 6.16092C13.4553 6.24219 13.4078 6.33613 13.381 6.43675C13.3542 6.53736 13.3487 6.64246 13.3647 6.74533C13.3808 6.84821 13.4181 6.94662 13.4743 7.03429C13.5304 7.12196 13.6042 7.19698 13.691 7.25456C13.7777 7.31214 13.8755 7.35104 13.9781 7.36876ZM21.7125 16.4156C21.5467 17.6816 20.9267 18.8443 19.9679 19.6876C19.0092 20.5308 17.7768 20.9972 16.5 21C9.05625 21 3 14.9438 3 7.50001C3.00281 6.22319 3.46919 4.99083 4.31243 4.03206C5.15566 3.07329 6.31837 2.45336 7.58437 2.28751C7.90711 2.25172 8.23284 2.31967 8.51435 2.4815C8.79586 2.64332 9.01851 2.89061 9.15 3.18751L11.0344 7.58438C11.1321 7.81261 11.1713 8.06163 11.1484 8.30885C11.1255 8.55607 11.0412 8.79364 10.9031 9.00001L9.34687 11.3813C10.0516 12.8114 11.2127 13.966 12.6469 14.6625L15 13.0969C15.2061 12.9579 15.4443 12.8738 15.692 12.8525C15.9397 12.8312 16.1888 12.8733 16.4156 12.975L20.8125 14.85C21.1094 14.9815 21.3567 15.2041 21.5185 15.4857C21.6803 15.7672 21.7483 16.0929 21.7125 16.4156ZM20.2219 16.2281L15.825 14.3531L13.4812 15.9188C13.2656 16.0613 13.0168 16.1457 12.7589 16.1638C12.501 16.1819 12.2428 16.133 12.0094 16.0219C10.2628 15.177 8.84994 13.7708 7.99687 12.0281C7.8844 11.7955 7.83393 11.5378 7.85036 11.2799C7.86678 11.022 7.94955 10.7727 8.09062 10.5563L9.65625 8.17501L7.77187 3.77813C6.86714 3.89443 6.03582 4.33652 5.43356 5.02161C4.8313 5.70671 4.4994 6.58783 4.5 7.50001C4.50248 10.6818 5.76756 13.7326 8.01746 15.9825C10.2674 18.2324 13.3182 19.4975 16.5 19.5C17.4122 19.5006 18.2933 19.1687 18.9784 18.5665C19.6635 17.9642 20.1056 17.1329 20.2219 16.2281Z" fill="#F5F5F5"/>
</svg>
